<svg width="205" height="236" viewBox="0 0 205 236" fill="none" xmlns="http://www.w3.org/2000/svg">
    <path d="M172.114 0.939453C163.546 24.3209 183.614 32.5256 199.675 47.8075C204.434 52.3358 204.888 59.8171 199.879 64.3424C189.107 74.0739 148.264 59.9168 150.854 72.7452C153.53 85.9944 188.061 104.532 189.618 105.799C203.284 116.932 207.735 145.174 200.208 160.659C194.852 171.676 159.342 167.962 148.172 164.293C75.024 140.266 107.985 143.131 25.8167 135.67C19.5265 135.099 12.9349 134.806 6.89385 136.65C0.671419 138.549 0.869364 146.339 2.95714 150.55C9.87574 164.506 40.8489 188.178 32.5138 206.523C29.9563 212.152 23.963 215.707 21.2644 221.27C19.1505 225.627 19.3849 230.772 18.4452 235.523"
          stroke="white" stroke-width="2"/>
</svg>
